<svg xmlns="http://www.w3.org/2000/svg" width="100" height="100" fill="none"><path fill="#FF6C37" d="M89.573 19.44a50 50 0 1 0-9.002 70.124c21.844-16.88 25.875-48.273 9-70.124h.002z"/><path fill="#fff" d="m66.863 31.859-21.082 21.25-5.958-6.125c20.75-20.75 22.833-18.875 27.042-15.125h-.002z"/><path fill="#FF6C37" d="M45.781 53.69a.75.75 0 0 1-.5-.208l-6-6a.75.75 0 0 1 0-1.042c20.458-20.458 23.25-19.5 28.083-15.125a.668.668 0 0 1 .25.542.586.586 0 0 1-.208.542L46.323 53.483a.791.791 0 0 1-.542.208v-.001zm-4.917-6.708 4.917 4.917 20-20a4.5 4.5 0 0 0-5.917-1c-3.625 1.625-9.458 6.583-19 16.083z"/><path fill="#fff" d="m51.823 58.983-5.75-5.875 21.083-20.834c5.667 5.542-2.75 14.792-15.333 26.708v.001z"/><path fill="#FF6C37" d="M51.823 59.733a.875.875 0 0 1-.5-.207l-5.875-5.75a.875.875 0 0 1 0-.668.807.807 0 0 1 0-.542l21.083-21.082a.79.79 0 0 1 1.083 0 6.462 6.462 0 0 1 2.082 4.957c0 5.625-6.417 12.708-17.332 23.042a.875.875 0 0 1-.542.25h.001zm-4.667-6.625 4.708 4.707c8.333-7.875 16.292-16 16.332-21.5a4.75 4.75 0 0 0-1.082-3.208L47.156 53.108z"/><path fill="#fff" d="m39.989 47.108 4.167 4.168a.25.25 0 0 1 0 .375l-8.792 1.875a.833.833 0 0 1-.75-1.418l5.125-5.082s.167 0 .25.082z"/><path fill="#FF6C37" d="M35.156 54.358a1.625 1.625 0 0 1-1.375-.792 1.585 1.585 0 0 1 .292-1.875l5.083-5.125a1 1 0 0 1 1.333 0l4.167 4.167a.92.92 0 0 1 .25.918.966.966 0 0 1-.708.667l-8.792 1.875-.25.165zm4.667-6.332-4.708 4.707 7.792-1.667-3.084-3.04z"/><path fill="#fff" d="M78.073 20.15a8.087 8.087 0 0 0-10.916-.287 8.08 8.08 0 0 0-1.24 10.849 8.086 8.086 0 0 0 10.698 2.187l-5.667-5.667 7.125-7.083z"/><path fill="#FF6C37" d="M72.448 34.815a8.828 8.828 0 0 1-8.056-5.481 8.855 8.855 0 0 1 1.875-9.56 8.922 8.922 0 0 1 12.5 0 .708.708 0 0 1 .184.84.719.719 0 0 1-.184.245l-6.75 6.375 5.125 5.042a.702.702 0 0 1 .208.625.75.75 0 0 1-.333.542 9.062 9.062 0 0 1-4.583 1.375l.014-.003zm0-16.167a7.304 7.304 0 0 0-6.74 4.531 7.362 7.362 0 0 0 1.574 7.969 7.29 7.29 0 0 0 8.083 1.542l-4.917-4.917a.667.667 0 0 1 0-1.043l6.5-6.542a7.476 7.476 0 0 0-4.5-1.542v.002z"/><path fill="#fff" d="m78.198 20.274-7.125 7.083 5.667 5.667a8.62 8.62 0 0 0 1.583-1.167 8.333 8.333 0 0 0-.125-11.583z"/><path fill="#FF6C37" d="M76.614 33.65a.624.624 0 0 1-.5-.209l-5.668-5.667a.668.668 0 0 1 0-1.042l7.083-6.958a.75.75 0 0 1 1.25 0 8.75 8.75 0 0 1 0 12.5c-.49.52-1.052.97-1.667 1.333a.672.672 0 0 1-.5.042h.002zm-4.583-6.416 4.707 4.707c.324-.226.63-.477.918-.75a7.375 7.375 0 0 0 2.167-5.207 7.155 7.155 0 0 0-1.792-4.75l-6 6z"/><path fill="#fff" d="M67.739 32.734a3.044 3.044 0 0 0-4.168 0l-18.873 18.83 3.125 3.168 19.958-17.5a3.091 3.091 0 0 0-.042-4.5v.002z"/><path fill="#FF6C37" d="M47.656 55.483a.75.75 0 0 1-.5-.207l-3.167-3.168a.75.75 0 0 1 0-1.042l18.875-18.792a3.834 3.834 0 0 1 6.542 2.833 3.921 3.921 0 0 1-1.292 2.75l-19.958 17.5a.711.711 0 0 1-.5.125v.001zm-2.208-3.918 2.083 2.125 19.583-17.042a2.301 2.301 0 0 0 .792-1.668 2.237 2.237 0 0 0-.708-1.707 2.333 2.333 0 0 0-3.292 0L45.448 51.565z"/><path fill="#fff" d="M30.073 73.024a.422.422 0 0 0 0 .5l.833 3.625a1.074 1.074 0 0 1-.519 1.094 1.017 1.017 0 0 1-1.19-.12l-5.708-5.5L41.281 54.69h6.167l4.167 4.167a94.59 94.59 0 0 1-21.542 14.167z"/><path fill="#FF6C37" d="M29.698 79.149a1.76 1.76 0 0 1-1.25-.542l-5.457-5.458a.667.667 0 0 1 0-1.042l17.915-17.958c.1-.107.231-.18.375-.208h6.208a.75.75 0 0 1 .5 0l4.167 4.167a.665.665 0 0 1 .208.583.672.672 0 0 1-.25.542l-.333.293a102.072 102.072 0 0 1-21.375 13.707l.792 3.375a1.798 1.798 0 0 1-1.707 2.208l.207.333zm-5.082-6.542 4.915 4.957a.25.25 0 0 0 .333 0 .25.25 0 0 0 0-.292l-.833-3.625a1.162 1.162 0 0 1 .625-1.333A102.437 102.437 0 0 0 50.49 58.897l-3.417-3.417H41.49L24.616 72.607z"/><path fill="#fff" d="m19.198 76.899 4.168-4.167 6.417 6.417-10.208-.708a.835.835 0 0 1-.375-1.54l-.002-.002z"/><path fill="#FF6C37" d="m29.906 79.774-10.167-.708a1.61 1.61 0 0 1-1.334-1.02 1.593 1.593 0 0 1 .334-1.647l4.167-4.167a.75.75 0 0 1 1.042 0l6.375 6.375a.706.706 0 0 1 0 .832.792.792 0 0 1-.417.333v.002zM19.739 77.44l8.333.542-4.583-4.292-3.75 3.75z"/><path fill="#fff" d="m48.03 55.193-8.416 1.292 4.875-4.833 3.542 3.54z"/><path fill="#FF6C37" d="M39.614 57.274a.712.712 0 0 1-.667-.417.703.703 0 0 1 0-.833l4.832-4.875a.791.791 0 0 1 1.083 0l3.544 3.54a.703.703 0 0 1 0 .75.735.735 0 0 1-.583.543l-8.333 1.292h.124zm4.875-4.542L41.78 55.44l4.667-.708-1.96-2z"/><path fill="#fff" d="m48.03 55.19-5.874.75a.75.75 0 0 1-.708-1.25l3.042-3.042 3.54 3.542z"/><path fill="#FF6C37" d="M41.989 56.733a1.543 1.543 0 0 1-1.333-.792 1.5 1.5 0 0 1 .25-1.792l3.042-3.042a.79.79 0 0 1 1.083 0l3.542 3.542a.75.75 0 0 1-.458 1.292l-5.832.75-.294.042zm0-1.542 4.417-.542-1.958-1.958-2.5 2.5h.04zm36.25-30.125a.625.625 0 0 0-.793-.25.577.577 0 0 0-.29.344.59.59 0 0 0 .04.449c.293.614.211 1.34-.207 1.875a.528.528 0 0 0-.157.395.594.594 0 0 0 .157.395.453.453 0 0 0 .332 0 .548.548 0 0 0 .543-.167 2.875 2.875 0 0 0 .374-3.042v.002z"/></svg>